<svg xmlns="http://www.w3.org/2000/svg" viewBox="0 0 134.51 47.71"><defs><style>.cls-1{fill:#fff;}</style></defs><g id="Layer_2" data-name="Layer 2"><g id="Layer_1-2" data-name="Layer 1"><path class="cls-1" d="M23.76.1H6.62c-1.31,0-1.8.45-2,1.71L.08,27.44c-.26,1.26.11,1.72,1.42,1.72H6.13c1.31,0,1.8-.46,2-1.72l1.48-8.27h8.59c1.31,0,1.85-.45,2-1.75l.66-3.69c.2-1.27-.12-1.72-1.43-1.72H10.88l.85-4.74h10.8c1.28,0,1.81-.46,2.06-1.77l.65-3.69C25.45.55,25.07.1,23.76.1"/><path class="cls-1" d="M23.77.1H6.62c-1.31,0-1.8.45-2,1.72L.07,27.44c-.24,1.27.12,1.72,1.43,1.72H6.13c1.31,0,1.8-.45,2-1.72l1.48-8.27h8.59c1.31,0,1.84-.45,2.05-1.76l.65-3.68c.21-1.27-.12-1.72-1.43-1.72H10.88l.85-4.75H22.54c1.27,0,1.8-.45,2-1.76l.66-3.68C25.44.55,25.08.1,23.77.1"/><path class="cls-1" d="M49.4.1H32.26c-1.31,0-1.8.45-2,1.71l-4.5,25.63c-.26,1.26.11,1.72,1.42,1.72H44.61c1.31,0,1.85-.46,2.06-1.72l.65-3.72c.24-1.32-.12-1.72-1.4-1.72H34.75l.7-3.93h8.64c1.31,0,1.8-.46,2-1.77l.65-3.67c.21-1.28-.11-1.72-1.42-1.72H36.73l.65-3.64h10.8c1.27,0,1.8-.46,2-1.77l.65-3.69C51.09.55,50.72.1,49.4.1"/><path class="cls-1" d="M49.41.1H32.26c-1.31,0-1.8.45-2,1.72l-4.5,25.62c-.24,1.27.12,1.72,1.44,1.72H44.62c1.31,0,1.84-.45,2.05-1.72l.65-3.73C47.57,22.4,47.2,22,45.93,22H34.76l.69-3.92h8.64c1.31,0,1.8-.46,2-1.76l.66-3.69c.2-1.27-.12-1.72-1.43-1.72H36.72l.66-3.64h10.8c1.27,0,1.8-.45,2-1.76l.66-3.68C51.09.55,50.72.1,49.41.1"/><path class="cls-1" d="M81.13,0H76.38c-2,0-2.62.45-3.19,1.72l-6.42,14A29.75,29.75,0,0,0,65.05,21h-.37a34.24,34.24,0,0,0,0-5.28l-1.44-14C63.16.45,62.54,0,60.55,0H56c-1.21,0-1.67.58-1.47,1.68l4.47,26c.21,1.06.69,1.35,1.88,1.35H66a2.19,2.19,0,0,0,2.36-1.43L82,1.68c.6-1.1.44-1.68-.82-1.68"/><path class="cls-1" d="M81.13,0H76.38c-2,0-2.62.45-3.19,1.72l-6.43,14A30.18,30.18,0,0,0,65,21h-.36a34.24,34.24,0,0,0,0-5.28l-1.44-14C63.16.45,62.55,0,60.54,0H56c-1.23,0-1.68.58-1.48,1.68l4.47,26c.2,1.06.69,1.35,1.88,1.35H66a2.2,2.2,0,0,0,2.37-1.43L82,1.68C82.56.58,82.4,0,81.13,0"/><path class="cls-1" d="M105.33,0H88.19c-1.31,0-1.8.45-2,1.72l-4.5,25.62c-.26,1.27.11,1.72,1.42,1.72h17.47c1.31,0,1.85-.45,2.06-1.72l.65-3.72c.24-1.31-.12-1.72-1.4-1.72H90.68l.7-3.93H100c1.31,0,1.8-.45,2-1.76l.65-3.68c.21-1.28-.11-1.72-1.42-1.72H92.66l.64-3.64h10.8c1.28,0,1.81-.45,2.06-1.76l.65-3.69C107,.45,106.65,0,105.33,0"/><path class="cls-1" d="M105.34,0H88.19c-1.31,0-1.8.45-2,1.72l-4.5,25.62c-.24,1.27.12,1.72,1.43,1.72h17.48c1.31,0,1.84-.45,2-1.72l.65-3.72c.25-1.31-.12-1.72-1.39-1.72H90.69L91.38,18H100c1.31,0,1.8-.45,2-1.76l.66-3.68c.2-1.27-.12-1.72-1.44-1.72H92.65l.66-3.65h10.8c1.27,0,1.8-.44,2-1.75l.65-3.69C107,.45,106.65,0,105.34,0"/><path class="cls-1" d="M125.9,9.82a3,3,0,0,1-3.15,2.74h-4.42l1-5.39h4.39c1.75,0,2.53,1,2.2,2.65m0-9.82H114.2c-1.31,0-1.8.45-2,1.72l-4.5,25.62c-.26,1.27.11,1.72,1.42,1.72h4.63c1.31,0,1.8-.45,2-1.72l1.4-7.94h1.06c1.8,0,2.09.69,2.54,2.08l1.64,5.62c.4,1.43,1.26,2,3.43,2h4.42c1.35,0,1.8-.91,1.43-2l-2.45-7a14.67,14.67,0,0,0-.78-1.77,10.67,10.67,0,0,0,5.85-8.09C135.44,3.85,132,0,125.87,0Z"/><path class="cls-1" d="M125.9,9.82a3,3,0,0,1-3.15,2.75h-4.42l1-5.41h4.38c1.76,0,2.54,1,2.21,2.66m0-9.82H114.2c-1.31,0-1.8.45-2,1.72l-4.5,25.62c-.24,1.27.13,1.72,1.43,1.72h4.63c1.31,0,1.8-.45,2-1.72l1.39-7.94h1.07c1.8,0,2.09.7,2.54,2.09l1.63,5.61c.41,1.43,1.27,2,3.44,2h4.42c1.35,0,1.8-.9,1.43-2l-2.45-7a15.22,15.22,0,0,0-.78-1.76,10.65,10.65,0,0,0,5.85-8.1C135.44,3.85,132,0,125.86,0Z"/><path class="cls-1" d="M37.47,39.25a3.13,3.13,0,0,0,.05-.5,2.27,2.27,0,0,0-2.38-2.33,3.65,3.65,0,0,0-3.43,2.85.09.09,0,0,1,0,0L30.89,44a.19.19,0,0,1-.15.16h-.1a.21.21,0,0,1-.17-.25l.81-4.7s0,0,0,0A2.4,2.4,0,0,0,29,36.42a3.62,3.62,0,0,0-3.42,2.88L24.7,44a.21.21,0,0,1,0,.07v0l-.05,0a0,0,0,0,1,0,0,.06.06,0,0,1-.05,0s0,0,0,0h-.05a.22.22,0,0,1-.19-.25l.84-4.7h0l.54-3.08a.22.22,0,0,1,.25-.16.21.21,0,0,1,.17.25l-.26,1.37A4.11,4.11,0,0,1,29,36a2.86,2.86,0,0,1,2,.79,2.83,2.83,0,0,1,.71,1.32A4,4,0,0,1,35.14,36a2.85,2.85,0,0,1,2,.79,2.71,2.71,0,0,1,.79,2,3.88,3.88,0,0,1,0,.57L37.07,44a.23.23,0,0,1-.22.17h0a.2.2,0,0,1-.17-.25Z"/><path class="cls-1" d="M36.85,44.29h0a.29.29,0,0,1-.2-.11.35.35,0,0,1-.06-.24l.83-4.7a3,3,0,0,0,0-.49,2.19,2.19,0,0,0-2.29-2.25,3.55,3.55,0,0,0-3.34,2.79.12.12,0,0,1,0,.06l-.8,4.7a.28.28,0,0,1-.2.21.09.09,0,0,1-.07,0h-.07a.27.27,0,0,1-.19-.11.35.35,0,0,1-.06-.24l.81-4.73,0,0a3.24,3.24,0,0,0,0-.44A2.16,2.16,0,0,0,29,36.5a3.55,3.55,0,0,0-3.34,2.82l-.83,4.73a.2.2,0,0,1,0,.08h0l0,0-.05,0,0,0-.05,0-.07,0h-.05a.32.32,0,0,1-.21-.12.28.28,0,0,1-.06-.23l.83-4.7.54-3.09a.32.32,0,0,1,.35-.24.29.29,0,0,1,.24.35L26,37.32a4.13,4.13,0,0,1,3-1.41,3,3,0,0,1,2.09.81,3.17,3.17,0,0,1,.68,1.17,4.08,4.08,0,0,1,3.41-2,3,3,0,0,1,2.07.81,2.84,2.84,0,0,1,.82,2,3,3,0,0,1-.06.58l-.82,4.72A.3.3,0,0,1,36.85,44.29ZM24.5,44.12l0,.08v-.08Zm13.06-4.85L36.73,44a.23.23,0,0,0,0,.11l.07,0h0A.13.13,0,0,0,37,44l.82-4.72a2.68,2.68,0,0,0,.05-.55,2.61,2.61,0,0,0-.76-1.9,2.75,2.75,0,0,0-2-.77,4,4,0,0,0-3.37,2.07l-.11.2-.05-.22a2.79,2.79,0,0,0-.68-1.29,2.82,2.82,0,0,0-2-.76,4,4,0,0,0-3.07,1.6l-.21.28L26,36.23a.13.13,0,0,0-.09-.15.14.14,0,0,0-.16.11l-.54,3.06L24.37,44a.13.13,0,0,0,0,.1.13.13,0,0,0,.07,0h.07v0h.06l0,0,.83-4.73a3.73,3.73,0,0,1,3.51-3,2.35,2.35,0,0,1,2.45,2.42,2.53,2.53,0,0,1,0,.47.17.17,0,0,1,0,.07L30.56,44a.12.12,0,0,0,0,.11.09.09,0,0,0,.06,0h0l0,0a.1.1,0,0,0,.09-.08l.81-4.74,0,0a3.71,3.71,0,0,1,3.5-2.93,2.36,2.36,0,0,1,2.47,2.42A3.49,3.49,0,0,1,37.56,39.27Z"/><path class="cls-1" d="M40.66,43.18a3.4,3.4,0,0,1-.91-2.37,4.16,4.16,0,0,1,.07-.77,4.88,4.88,0,0,1,4.53-4,3.07,3.07,0,0,1,2.33,1,3.11,3.11,0,0,1,.72,1.27l.39-2.08A.19.19,0,0,1,48,36a.2.2,0,0,1,.17.24l-.69,3.87L46.83,44a.2.2,0,0,1-.2.17h0a.19.19,0,0,1-.17-.23l.34-2a4.78,4.78,0,0,1-3.8,2.2A3,3,0,0,1,40.66,43.18Zm-.49-2.37A2.75,2.75,0,0,0,43,43.73,4.45,4.45,0,0,0,47.1,40a5.21,5.21,0,0,0,0-.69,2.75,2.75,0,0,0-2.8-2.92h0a4.47,4.47,0,0,0-4.09,3.69A3.3,3.3,0,0,0,40.17,40.81Z"/><path class="cls-1" d="M43,44.26a3.18,3.18,0,0,1-2.38-1,3.51,3.51,0,0,1-.92-2.43,4.67,4.67,0,0,1,.06-.78,5,5,0,0,1,4.62-4.1h.06a3.13,3.13,0,0,1,2.34,1,3.28,3.28,0,0,1,.63,1l.32-1.76a.33.33,0,0,1,.13-.21.28.28,0,0,1,.22,0,.27.27,0,0,1,.17.11.29.29,0,0,1,.06.22l-.69,3.88L46.92,44a.29.29,0,0,1-.29.24h0a.31.31,0,0,1-.22-.13.28.28,0,0,1,0-.22l.27-1.56A4.83,4.83,0,0,1,43,44.26Zm1.44-8.16h-.06a4.77,4.77,0,0,0-4.45,4,4.47,4.47,0,0,0-.06.75,3.33,3.33,0,0,0,.88,2.31h0a3,3,0,0,0,2.25,1,4.62,4.62,0,0,0,3.72-2.16l.23-.34-.4,2.35a.11.11,0,0,0,0,.08.15.15,0,0,0,.09.06h0a.12.12,0,0,0,.12-.1l.67-3.86.69-3.88a.24.24,0,0,0,0-.09.12.12,0,0,0-.08,0s-.06,0-.08,0,0,0-.06.08l-.45,2.44-.1-.34a3.09,3.09,0,0,0-.7-1.24A2.92,2.92,0,0,0,44.41,36.1ZM43,43.82h0a2.85,2.85,0,0,1-2.89-3h0a3.77,3.77,0,0,1,.07-.7,4.54,4.54,0,0,1,4.18-3.76,2.82,2.82,0,0,1,2.91,3,5.49,5.49,0,0,1-.05.7A4.53,4.53,0,0,1,43,43.82Zm-2.74-3A2.67,2.67,0,0,0,43,43.65h0A4.42,4.42,0,0,0,47,40a5.31,5.31,0,0,0,0-.68,2.66,2.66,0,0,0-2.72-2.83,4.43,4.43,0,0,0-4,3.62,3.48,3.48,0,0,0-.06.67Z"/><path class="cls-1" d="M52,36.25l-.47,2.67c.19-.27.4-.57.66-.89a4.85,4.85,0,0,1,3.6-2,.22.22,0,0,1,.22.21.21.21,0,0,1-.22.21c-2.06,0-3.57,2.11-4.19,3.18-.17.31-.25.51-.29.58l-.69,3.87a.2.2,0,0,1-.2.17h-.05a.22.22,0,0,1-.16-.24l1.37-7.8a.22.22,0,0,1,.25-.18A.21.21,0,0,1,52,36.25Z"/><path class="cls-1" d="M50.42,44.31h-.05a.29.29,0,0,1-.19-.13.27.27,0,0,1-.06-.21l1.38-7.8a.31.31,0,0,1,.35-.26.32.32,0,0,1,.24.35h0l-.41,2.29.44-.58a4.84,4.84,0,0,1,3.67-2.06.31.31,0,0,1,.31.3.3.3,0,0,1-.31.29h0c-2.06,0-3.55,2.2-4.1,3.15-.12.22-.2.39-.25.49l0,.06-.69,3.87A.28.28,0,0,1,50.42,44.31Zm1.38-8.23a.14.14,0,0,0-.13.11L50.29,44a.13.13,0,0,0,0,.08s0,.05.07.05h0a.12.12,0,0,0,.12-.09l.7-3.9a.13.13,0,0,1,0-.07,5.34,5.34,0,0,1,.25-.51c.57-1,2.1-3.23,4.25-3.23.07,0,.16,0,.16-.12a.15.15,0,0,0-.14-.13,4.71,4.71,0,0,0-3.54,2c-.22.28-.43.58-.65.89l-.22.32.54-3.06a.13.13,0,0,0-.11-.15Z"/><path class="cls-1" d="M65.07,36.23l-4,3.44,2.68,4.15a.22.22,0,0,1-.05.3l-.11,0a.21.21,0,0,1-.19-.1l-2.67-4.11-2.28,2s0,0-.07,0L58,44a.22.22,0,0,1-.22.18h0a.22.22,0,0,1-.17-.25l2-11.33a.21.21,0,0,1,.23-.16.22.22,0,0,1,.19.25L58.46,41.3l6.33-5.39a.22.22,0,0,1,.3,0A.21.21,0,0,1,65.07,36.23Z"/><path class="cls-1" d="M63.55,44.24a.32.32,0,0,1-.27-.15l-2.61-4L58.47,42l0,0-.34,2a.3.3,0,0,1-.31.26h0a.3.3,0,0,1-.25-.35l2-11.33a.3.3,0,0,1,.59.11l-1.48,8.41,6.14-5.23a.27.27,0,0,1,.19-.08h0a.33.33,0,0,1,.23.1.31.31,0,0,1,.08.24.3.3,0,0,1-.1.19l-4,3.39,2.65,4.08a.34.34,0,0,1-.07.42h-.07A.19.19,0,0,1,63.55,44.24ZM59.78,32.49a.14.14,0,0,0-.13.1l-2,11.32c0,.07,0,.15.09.16h0a.15.15,0,0,0,.14-.12l.36-2.12h.07l2.37-2L63.43,44a.13.13,0,0,0,.12.07l0,0h0a.15.15,0,0,0,0-.18l-2.72-4.21L65,36.16s0,0,0-.07A.17.17,0,0,0,65,36a.15.15,0,0,0-.1,0h0a.09.09,0,0,0-.07,0l-6.52,5.55,1.57-8.88a.13.13,0,0,0-.11-.15Z"/><path class="cls-1" d="M66,40.06A5,5,0,0,1,70.66,36a3.17,3.17,0,0,1,2.4,1A3.74,3.74,0,0,1,74,39.84s0,0,0,.07a.25.25,0,0,1-.21.15H66.45a.12.12,0,0,0,0,.08,3,3,0,0,0,2.87,3.63,4.32,4.32,0,0,0,3.27-1.68.23.23,0,0,1,.3,0,.23.23,0,0,1,0,.31A4.84,4.84,0,0,1,69.3,44.2a3.27,3.27,0,0,1-2.42-1,3.38,3.38,0,0,1-.94-2.41A3.51,3.51,0,0,1,66,40.06Zm.54-.42h7a1.1,1.1,0,0,0,0-.25,2.83,2.83,0,0,0-2.92-3A4.52,4.52,0,0,0,66.55,39.64Z"/><path class="cls-1" d="M69.3,44.29a3.35,3.35,0,0,1-2.48-1A3.75,3.75,0,0,1,65.93,40a5.08,5.08,0,0,1,4.73-4.13h.06a3.24,3.24,0,0,1,2.4,1,3.47,3.47,0,0,1,1,2.48,3.62,3.62,0,0,1,0,.46.43.43,0,0,0,0,0v0a.32.32,0,0,1-.29.2H66.52a2.67,2.67,0,0,0-.07.66,2.74,2.74,0,0,0,2.85,2.88A4.23,4.23,0,0,0,72.51,42a.31.31,0,0,1,.41-.05.33.33,0,0,1,.06.43A5,5,0,0,1,69.3,44.29Zm1.42-8.21a4.89,4.89,0,0,0-4.62,4h0a3,3,0,0,0-.07.72A3.29,3.29,0,0,0,67,43.15a3.18,3.18,0,0,0,2.35,1,4.8,4.8,0,0,0,3.54-1.82.13.13,0,0,0,0-.18.13.13,0,0,0-.17,0,4.39,4.39,0,0,1-3.34,1.71,2.9,2.9,0,0,1-3-3.05,2.68,2.68,0,0,1,.07-.68s0,0,0-.1l0-.05h7.36a.14.14,0,0,0,.12-.09s0,0,0,0a3.78,3.78,0,0,0,0-.46A3.29,3.29,0,0,0,73,37,3.11,3.11,0,0,0,70.72,36.08Zm2.91,3.64h-7.2l0-.11a4.61,4.61,0,0,1,4.16-3.28h0a2.93,2.93,0,0,1,3,3.06,1.18,1.18,0,0,1,0,.26Zm-7-.17h6.82v-.16a2.74,2.74,0,0,0-2.83-2.89h0A4.42,4.42,0,0,0,66.67,39.55Z"/><path class="cls-1" d="M79.54,36.18a.3.3,0,0,1-.26.22H77.93l-1.16,6.49a.7.7,0,0,0,.72.86c.12,0,.18.1.17.22a.29.29,0,0,1-.25.22,1.06,1.06,0,0,1-1.06-1.3l1.16-6.49H76.1a.17.17,0,0,1-.17-.22.23.23,0,0,1,.23-.2h1.41l.59-3.34a.26.26,0,0,1,.25-.2.16.16,0,0,1,.17.2L78,36h1.34A.18.18,0,0,1,79.54,36.18Z"/><path class="cls-1" d="M77.41,44.27a1.18,1.18,0,0,1-.9-.39,1.23,1.23,0,0,1-.25-1l1.14-6.39H76.1a.27.27,0,0,1-.22-.11.24.24,0,0,1,0-.22.31.31,0,0,1,.31-.27H77.5l.58-3.26a.33.33,0,0,1,.33-.28.26.26,0,0,1,.26.3l-.56,3.24h1.24a.29.29,0,0,1,.21.09.27.27,0,0,1,.06.21h0a.38.38,0,0,1-.34.29H78l-1.15,6.42a.66.66,0,0,0,.15.55.63.63,0,0,0,.49.2.23.23,0,0,1,.19.09.26.26,0,0,1,.06.23A.34.34,0,0,1,77.41,44.27Zm-1.25-8.2a.15.15,0,0,0-.15.12.13.13,0,0,0,0,.09.11.11,0,0,0,.08,0h1.51l-1.18,6.6a1,1,0,0,0,.22.86,1,1,0,0,0,.76.33.18.18,0,0,0,.16-.14.11.11,0,0,0,0-.1s0,0-.06,0a.8.8,0,0,1-.62-.27.86.86,0,0,1-.19-.69l1.17-6.57h1.43a.2.2,0,0,0,.17-.15.07.07,0,0,0,0-.06s0,0-.08,0H77.91l.59-3.44a.19.19,0,0,0,0-.08.1.1,0,0,0-.07,0,.15.15,0,0,0-.16.12l-.6,3.42Z"/><path class="cls-1" d="M81.37,44l1.35-7.82A.24.24,0,0,1,83,36a.18.18,0,0,1,.16.23L81.78,44a.21.21,0,0,1-.2.17h0A.22.22,0,0,1,81.37,44Zm1.91-9.68a.22.22,0,0,1-.17-.25l.08-.41a.22.22,0,0,1,.26-.16.21.21,0,0,1,.16.25l-.08.4a.2.2,0,0,1-.2.17Z"/><path class="cls-1" d="M81.58,44.29h-.07a.32.32,0,0,1-.23-.34h0l1.36-7.82a.28.28,0,0,1,.14-.19.29.29,0,0,1,.22,0,.26.26,0,0,1,.23.34l-1.36,7.81A.32.32,0,0,1,81.58,44.29Zm0-.17h0a.15.15,0,0,0,.12-.1l1.36-7.82s0-.06,0-.08a.11.11,0,0,0-.09,0,.08.08,0,0,0-.09,0,.16.16,0,0,0-.06.08L81.45,44A.16.16,0,0,0,81.55,44.12Zm1.78-9.77h-.07A.3.3,0,0,1,83,34l.09-.41a.3.3,0,0,1,.35-.24.32.32,0,0,1,.24.35l-.09.41A.27.27,0,0,1,83.33,34.35Zm0-.17h0a.1.1,0,0,0,.11-.09l.09-.41a.15.15,0,0,0-.1-.15.14.14,0,0,0-.15.1l-.09.4A.14.14,0,0,0,83.29,34.18Z"/><path class="cls-1" d="M93.11,39.25a2.06,2.06,0,0,0,0-.48,2.29,2.29,0,0,0-2.38-2.35,3.65,3.65,0,0,0-3.47,2.9l-.83,4.75s0,0,0,.06a0,0,0,0,1,0,0s0,0,0,0,0,0,0,0,0,0,0,0,0,0,0,0h-.07a.23.23,0,0,1-.17-.26l.84-4.73h0l.54-3.08a.21.21,0,0,1,.25-.16.22.22,0,0,1,.17.25l-.25,1.37A4.11,4.11,0,0,1,90.78,36a2.9,2.9,0,0,1,2,.79,2.75,2.75,0,0,1,.78,2,3.62,3.62,0,0,1,0,.55l-.81,4.75a.25.25,0,0,1-.24.17h0a.23.23,0,0,1-.17-.26Z"/><path class="cls-1" d="M92.47,44.32h0a.3.3,0,0,1-.21-.13.33.33,0,0,1,0-.22L93,39.23a2.49,2.49,0,0,0,0-.46,2.21,2.21,0,0,0-2.3-2.27,3.57,3.57,0,0,0-3.39,2.83l-.82,4.75a.21.21,0,0,1,0,.1l0,0a.1.1,0,0,1,0,0,.05.05,0,0,1,0,0l0,0a.08.08,0,0,1-.07,0h-.07a.26.26,0,0,1-.2-.13A.28.28,0,0,1,86,44l1.38-7.82a.29.29,0,0,1,.34-.24.3.3,0,0,1,.24.35l-.19,1.06a4.13,4.13,0,0,1,3-1.41,3,3,0,0,1,2.07.81,3.05,3.05,0,0,1,.75,2.61l-.81,4.75A.31.31,0,0,1,92.47,44.32Zm-4.81-8.24c-.06,0-.13,0-.13.1L86.15,44a.12.12,0,0,0,0,.1.13.13,0,0,0,.07,0h.07v0h0v0h0v0l.82-4.75a3.75,3.75,0,0,1,3.56-3,2.39,2.39,0,0,1,2.47,2.44,2.92,2.92,0,0,1,0,.5L92.36,44a.12.12,0,0,0,0,.1.1.1,0,0,0,.07,0h0c.07,0,.15,0,.15-.1l.81-4.75a3.49,3.49,0,0,0,0-.53,2.68,2.68,0,0,0-.75-1.92,2.85,2.85,0,0,0-2-.77,4,4,0,0,0-3.1,1.6l-.22.28.31-1.73a.14.14,0,0,0-.09-.15Z"/><path class="cls-1" d="M98.43,47.63a3.26,3.26,0,0,1-1.63-.41.19.19,0,0,1-.08-.28.21.21,0,0,1,.28-.09,3,3,0,0,0,1.43.36,4.35,4.35,0,0,0,4.1-3.49l.3-1.72A4.67,4.67,0,0,1,99,44.2a3.19,3.19,0,0,1-2.34-1,3.37,3.37,0,0,1-.9-2.4,4.16,4.16,0,0,1,.06-.78A4.94,4.94,0,0,1,100.41,36a3.09,3.09,0,0,1,2.33,1,3.2,3.2,0,0,1,.76,1.27l.37-2.08a.2.2,0,0,1,.25-.17.21.21,0,0,1,.17.24l-.69,3.89v0L103,43.78A4.78,4.78,0,0,1,98.43,47.63Zm4.75-7.56a5.45,5.45,0,0,0,0-.68,2.79,2.79,0,0,0-2.82-3h0a4.48,4.48,0,0,0-4.11,3.73,3.16,3.16,0,0,0-.06.69A2.77,2.77,0,0,0,99,43.78,4.49,4.49,0,0,0,103.18,40.07Z"/><path class="cls-1" d="M98.43,47.71a3.33,3.33,0,0,1-1.67-.41.32.32,0,0,1-.15-.19.24.24,0,0,1,0-.22.24.24,0,0,1,.16-.13.26.26,0,0,1,.23,0,3,3,0,0,0,1.39.34,4.25,4.25,0,0,0,4-3.42l.24-1.34A4.66,4.66,0,0,1,99,44.29H99a3.27,3.27,0,0,1-2.34-1,3.46,3.46,0,0,1-.93-2.47,3.9,3.9,0,0,1,.07-.78,5,5,0,0,1,4.63-4.15,3.22,3.22,0,0,1,2.4,1,3.27,3.27,0,0,1,.66,1l.31-1.77a.3.3,0,0,1,.36-.24.27.27,0,0,1,.18.11.28.28,0,0,1,.05.22L103,43.8A4.83,4.83,0,0,1,98.43,47.71Zm-1.52-.79h0a.09.09,0,0,0-.06.06.08.08,0,0,0,0,.09.16.16,0,0,0,.06.08,3.26,3.26,0,0,0,1.59.39,4.66,4.66,0,0,0,4.43-3.77l.65-3.63.69-3.91a.1.1,0,0,0,0-.09.08.08,0,0,0-.07,0,.11.11,0,0,0-.1,0,.16.16,0,0,0-.06.08l-.43,2.43-.1-.33a3.14,3.14,0,0,0-.74-1.24,3,3,0,0,0-2.27-1,4.83,4.83,0,0,0-4.46,4,3.64,3.64,0,0,0-.07.76,3.26,3.26,0,0,0,.89,2.34,3.1,3.1,0,0,0,2.21.93h0A4.6,4.6,0,0,0,102.76,42l.22-.35-.37,2.12a4.43,4.43,0,0,1-4.18,3.56A3.07,3.07,0,0,1,97,46.93Zm2.15-3.05h0a2.86,2.86,0,0,1-2.9-3,3.11,3.11,0,0,1,.07-.71,4.55,4.55,0,0,1,4.19-3.79,2.88,2.88,0,0,1,2.93,3,5.76,5.76,0,0,1,0,.7h0A4.58,4.58,0,0,1,99.06,43.87Zm1.35-7.35a4.38,4.38,0,0,0-4,3.65,2.9,2.9,0,0,0-.07.68A2.68,2.68,0,0,0,99,43.7h0a4.41,4.41,0,0,0,4-3.64,5.12,5.12,0,0,0,0-.67A2.71,2.71,0,0,0,100.41,36.52Z"/><path class="cls-1" d="M23.76.1H6.62c-1.31,0-1.8.45-2,1.71L.08,27.44c-.26,1.26.11,1.72,1.42,1.72H6.13c1.31,0,1.8-.46,2-1.72l1.48-8.27h8.59c1.31,0,1.85-.45,2-1.75l.66-3.69c.2-1.27-.12-1.72-1.43-1.72H10.88l.85-4.74h10.8c1.28,0,1.81-.46,2.06-1.77l.65-3.69C25.45.55,25.07.1,23.76.1"/><path class="cls-1" d="M23.77.1H6.62c-1.31,0-1.8.45-2,1.72L.07,27.44c-.24,1.27.12,1.72,1.43,1.72H6.13c1.31,0,1.8-.45,2-1.72l1.48-8.27h8.59c1.31,0,1.84-.45,2.05-1.76l.65-3.68c.21-1.27-.12-1.72-1.43-1.72H10.88l.85-4.75H22.54c1.27,0,1.8-.45,2-1.76l.66-3.68C25.44.55,25.08.1,23.77.1"/><path class="cls-1" d="M49.4.1H32.26c-1.31,0-1.8.45-2,1.71l-4.5,25.63c-.26,1.26.11,1.72,1.42,1.72H44.61c1.31,0,1.85-.46,2.06-1.72l.65-3.72c.24-1.32-.12-1.72-1.4-1.72H34.75l.7-3.93h8.64c1.31,0,1.8-.46,2-1.77l.65-3.67c.21-1.28-.11-1.72-1.42-1.72H36.73l.65-3.64h10.8c1.27,0,1.8-.46,2-1.77l.65-3.69C51.09.55,50.72.1,49.4.1"/><path class="cls-1" d="M49.41.1H32.26c-1.31,0-1.8.45-2,1.72l-4.5,25.62c-.24,1.27.12,1.72,1.44,1.72H44.62c1.31,0,1.84-.45,2.05-1.72l.65-3.73C47.57,22.4,47.2,22,45.93,22H34.76l.69-3.92h8.64c1.31,0,1.8-.46,2-1.76l.66-3.69c.2-1.27-.12-1.72-1.43-1.72H36.72l.66-3.64h10.8c1.27,0,1.8-.45,2-1.76l.66-3.68C51.09.55,50.72.1,49.41.1"/><path class="cls-1" d="M81.13,0H76.38c-2,0-2.62.45-3.19,1.72l-6.42,14A29.75,29.75,0,0,0,65.05,21h-.37a34.24,34.24,0,0,0,0-5.28l-1.44-14C63.16.45,62.54,0,60.55,0H56c-1.21,0-1.67.58-1.47,1.68l4.47,26c.21,1.06.69,1.35,1.88,1.35H66a2.19,2.19,0,0,0,2.36-1.43L82,1.68c.6-1.1.44-1.68-.82-1.68"/><path class="cls-1" d="M81.13,0H76.38c-2,0-2.62.45-3.19,1.72l-6.43,14A30.18,30.18,0,0,0,65,21h-.36a34.24,34.24,0,0,0,0-5.28l-1.44-14C63.16.45,62.55,0,60.54,0H56c-1.23,0-1.68.58-1.48,1.68l4.47,26c.2,1.06.69,1.35,1.88,1.35H66a2.2,2.2,0,0,0,2.37-1.43L82,1.68C82.56.58,82.4,0,81.13,0"/><path class="cls-1" d="M105.33,0H88.19c-1.31,0-1.8.45-2,1.72l-4.5,25.62c-.26,1.27.11,1.72,1.42,1.72h17.47c1.31,0,1.85-.45,2.06-1.72l.65-3.72c.24-1.31-.12-1.72-1.4-1.72H90.68l.7-3.93H100c1.31,0,1.8-.45,2-1.76l.65-3.68c.21-1.28-.11-1.72-1.42-1.72H92.66l.64-3.64h10.8c1.28,0,1.81-.45,2.06-1.76l.65-3.69C107,.45,106.65,0,105.33,0"/><path class="cls-1" d="M105.34,0H88.19c-1.31,0-1.8.45-2,1.72l-4.5,25.62c-.24,1.27.12,1.72,1.43,1.72h17.48c1.31,0,1.84-.45,2-1.72l.65-3.72c.25-1.31-.12-1.72-1.39-1.72H90.69L91.38,18H100c1.31,0,1.8-.45,2-1.76l.66-3.68c.2-1.27-.12-1.72-1.44-1.72H92.65l.66-3.65h10.8c1.27,0,1.8-.44,2-1.75l.65-3.69C107,.45,106.65,0,105.34,0"/><path class="cls-1" d="M125.9,9.82a3,3,0,0,1-3.15,2.74h-4.42l1-5.39h4.39c1.75,0,2.53,1,2.2,2.65m0-9.82H114.2c-1.31,0-1.8.45-2,1.72l-4.5,25.62c-.26,1.27.11,1.72,1.42,1.72h4.63c1.31,0,1.8-.45,2-1.72l1.4-7.94h1.06c1.8,0,2.09.69,2.54,2.08l1.64,5.62c.4,1.43,1.26,2,3.43,2h4.42c1.35,0,1.8-.91,1.43-2l-2.45-7a14.67,14.67,0,0,0-.78-1.77,10.67,10.67,0,0,0,5.85-8.09C135.44,3.85,132,0,125.87,0Z"/><path class="cls-1" d="M125.9,9.82a3,3,0,0,1-3.15,2.75h-4.42l1-5.41h4.38c1.76,0,2.54,1,2.21,2.66m0-9.82H114.2c-1.31,0-1.8.45-2,1.72l-4.5,25.62c-.24,1.27.13,1.72,1.43,1.72h4.63c1.31,0,1.8-.45,2-1.72l1.39-7.94h1.07c1.8,0,2.09.7,2.54,2.09l1.63,5.61c.41,1.43,1.27,2,3.44,2h4.42c1.35,0,1.8-.9,1.43-2l-2.45-7a15.22,15.22,0,0,0-.78-1.76,10.65,10.65,0,0,0,5.85-8.1C135.44,3.85,132,0,125.86,0Z"/><path class="cls-1" d="M37.47,39.25a3.13,3.13,0,0,0,.05-.5,2.27,2.27,0,0,0-2.38-2.33,3.65,3.65,0,0,0-3.43,2.85.09.09,0,0,1,0,0L30.89,44a.19.19,0,0,1-.15.16h-.1a.21.21,0,0,1-.17-.25l.81-4.7s0,0,0,0A2.4,2.4,0,0,0,29,36.42a3.62,3.62,0,0,0-3.42,2.88L24.7,44a.21.21,0,0,1,0,.07v0l-.05,0a0,0,0,0,1,0,0,.06.06,0,0,1-.05,0s0,0,0,0h-.05a.22.22,0,0,1-.19-.25l.84-4.7h0l.54-3.08a.22.22,0,0,1,.25-.16.21.21,0,0,1,.17.25l-.26,1.37A4.11,4.11,0,0,1,29,36a2.86,2.86,0,0,1,2,.79,2.83,2.83,0,0,1,.71,1.32A4,4,0,0,1,35.14,36a2.85,2.85,0,0,1,2,.79,2.71,2.71,0,0,1,.79,2,3.88,3.88,0,0,1,0,.57L37.07,44a.23.23,0,0,1-.22.17h0a.2.2,0,0,1-.17-.25Z"/><path class="cls-1" d="M36.85,44.29h0a.29.29,0,0,1-.2-.11.35.35,0,0,1-.06-.24l.83-4.7a3,3,0,0,0,0-.49,2.19,2.19,0,0,0-2.29-2.25,3.55,3.55,0,0,0-3.34,2.79.12.12,0,0,1,0,.06l-.8,4.7a.28.28,0,0,1-.2.21.09.09,0,0,1-.07,0h-.07a.27.27,0,0,1-.19-.11.35.35,0,0,1-.06-.24l.81-4.73,0,0a3.24,3.24,0,0,0,0-.44A2.16,2.16,0,0,0,29,36.5a3.55,3.55,0,0,0-3.34,2.82l-.83,4.73a.2.2,0,0,1,0,.08h0l0,0-.05,0,0,0-.05,0-.07,0h-.05a.32.32,0,0,1-.21-.12.28.28,0,0,1-.06-.23l.83-4.7.54-3.09a.32.32,0,0,1,.35-.24.29.29,0,0,1,.24.35L26,37.32a4.13,4.13,0,0,1,3-1.41,3,3,0,0,1,2.09.81,3.17,3.17,0,0,1,.68,1.17,4.08,4.08,0,0,1,3.41-2,3,3,0,0,1,2.07.81,2.84,2.84,0,0,1,.82,2,3,3,0,0,1-.06.58l-.82,4.72A.3.3,0,0,1,36.85,44.29ZM24.5,44.12l0,.08v-.08Zm13.06-4.85L36.73,44a.23.23,0,0,0,0,.11l.07,0h0A.13.13,0,0,0,37,44l.82-4.72a2.68,2.68,0,0,0,.05-.55,2.61,2.61,0,0,0-.76-1.9,2.75,2.75,0,0,0-2-.77,4,4,0,0,0-3.37,2.07l-.11.2-.05-.22a2.79,2.79,0,0,0-.68-1.29,2.82,2.82,0,0,0-2-.76,4,4,0,0,0-3.07,1.6l-.21.28L26,36.23a.13.13,0,0,0-.09-.15.14.14,0,0,0-.16.11l-.54,3.06L24.37,44a.13.13,0,0,0,0,.1.13.13,0,0,0,.07,0h.07v0h.06l0,0,.83-4.73a3.73,3.73,0,0,1,3.51-3,2.35,2.35,0,0,1,2.45,2.42,2.53,2.53,0,0,1,0,.47.17.17,0,0,1,0,.07L30.56,44a.12.12,0,0,0,0,.11.09.09,0,0,0,.06,0h0l0,0a.1.1,0,0,0,.09-.08l.81-4.74,0,0a3.71,3.71,0,0,1,3.5-2.93,2.36,2.36,0,0,1,2.47,2.42A3.49,3.49,0,0,1,37.56,39.27Z"/><path class="cls-1" d="M40.66,43.18a3.4,3.4,0,0,1-.91-2.37,4.16,4.16,0,0,1,.07-.77,4.88,4.88,0,0,1,4.53-4,3.07,3.07,0,0,1,2.33,1,3.11,3.11,0,0,1,.72,1.27l.39-2.08A.19.19,0,0,1,48,36a.2.2,0,0,1,.17.24l-.69,3.87L46.83,44a.2.2,0,0,1-.2.17h0a.19.19,0,0,1-.17-.23l.34-2a4.78,4.78,0,0,1-3.8,2.2A3,3,0,0,1,40.66,43.18Zm-.49-2.37A2.75,2.75,0,0,0,43,43.73,4.45,4.45,0,0,0,47.1,40a5.21,5.21,0,0,0,0-.69,2.75,2.75,0,0,0-2.8-2.92h0a4.47,4.47,0,0,0-4.09,3.69A3.3,3.3,0,0,0,40.17,40.81Z"/><path class="cls-1" d="M43,44.26a3.18,3.18,0,0,1-2.38-1,3.51,3.51,0,0,1-.92-2.43,4.67,4.67,0,0,1,.06-.78,5,5,0,0,1,4.62-4.1h.06a3.13,3.13,0,0,1,2.34,1,3.28,3.28,0,0,1,.63,1l.32-1.76a.33.33,0,0,1,.13-.21.28.28,0,0,1,.22,0,.27.27,0,0,1,.17.11.29.29,0,0,1,.06.22l-.69,3.88L46.92,44a.29.29,0,0,1-.29.24h0a.31.31,0,0,1-.22-.13.28.28,0,0,1,0-.22l.27-1.56A4.83,4.83,0,0,1,43,44.26Zm1.44-8.16h-.06a4.77,4.77,0,0,0-4.45,4,4.47,4.47,0,0,0-.06.75,3.33,3.33,0,0,0,.88,2.31h0a3,3,0,0,0,2.25,1,4.62,4.62,0,0,0,3.72-2.16l.23-.34-.4,2.35a.11.11,0,0,0,0,.08.15.15,0,0,0,.09.06h0a.12.12,0,0,0,.12-.1l.67-3.86.69-3.88a.24.24,0,0,0,0-.09.12.12,0,0,0-.08,0s-.06,0-.08,0,0,0-.06.08l-.45,2.44-.1-.34a3.09,3.09,0,0,0-.7-1.24A2.92,2.92,0,0,0,44.41,36.1ZM43,43.82h0a2.85,2.85,0,0,1-2.89-3h0a3.77,3.77,0,0,1,.07-.7,4.54,4.54,0,0,1,4.18-3.76,2.82,2.82,0,0,1,2.91,3,5.49,5.49,0,0,1-.05.7A4.53,4.53,0,0,1,43,43.82Zm-2.74-3A2.67,2.67,0,0,0,43,43.65h0A4.42,4.42,0,0,0,47,40a5.31,5.31,0,0,0,0-.68,2.66,2.66,0,0,0-2.72-2.83,4.43,4.43,0,0,0-4,3.62,3.48,3.48,0,0,0-.06.67Z"/><path class="cls-1" d="M52,36.25l-.47,2.67c.19-.27.4-.57.66-.89a4.85,4.85,0,0,1,3.6-2,.22.22,0,0,1,.22.21.21.21,0,0,1-.22.21c-2.06,0-3.57,2.11-4.19,3.18-.17.31-.25.51-.29.58l-.69,3.87a.2.2,0,0,1-.2.17h-.05a.22.22,0,0,1-.16-.24l1.37-7.8a.22.22,0,0,1,.25-.18A.21.21,0,0,1,52,36.25Z"/><path class="cls-1" d="M50.42,44.31h-.05a.29.29,0,0,1-.19-.13.27.27,0,0,1-.06-.21l1.38-7.8a.31.31,0,0,1,.35-.26.32.32,0,0,1,.24.35h0l-.41,2.29.44-.58a4.84,4.84,0,0,1,3.67-2.06.31.31,0,0,1,.31.3.3.3,0,0,1-.31.29h0c-2.06,0-3.55,2.2-4.1,3.15-.12.22-.2.39-.25.49l0,.06-.69,3.87A.28.28,0,0,1,50.42,44.31Zm1.38-8.23a.14.14,0,0,0-.13.11L50.29,44a.13.13,0,0,0,0,.08s0,.05.07.05h0a.12.12,0,0,0,.12-.09l.7-3.9a.13.13,0,0,1,0-.07,5.34,5.34,0,0,1,.25-.51c.57-1,2.1-3.23,4.25-3.23.07,0,.16,0,.16-.12a.15.15,0,0,0-.14-.13,4.71,4.71,0,0,0-3.54,2c-.22.28-.43.58-.65.89l-.22.32.54-3.06a.13.13,0,0,0-.11-.15Z"/><path class="cls-1" d="M65.07,36.23l-4,3.44,2.68,4.15a.22.22,0,0,1-.05.3l-.11,0a.21.21,0,0,1-.19-.1l-2.67-4.11-2.28,2s0,0-.07,0L58,44a.22.22,0,0,1-.22.18h0a.22.22,0,0,1-.17-.25l2-11.33a.21.21,0,0,1,.23-.16.22.22,0,0,1,.19.25L58.46,41.3l6.33-5.39a.22.22,0,0,1,.3,0A.21.21,0,0,1,65.07,36.23Z"/><path class="cls-1" d="M63.55,44.24a.32.32,0,0,1-.27-.15l-2.61-4L58.47,42l0,0-.34,2a.3.3,0,0,1-.31.26h0a.3.3,0,0,1-.25-.35l2-11.33a.3.3,0,0,1,.59.11l-1.48,8.41,6.14-5.23a.27.27,0,0,1,.19-.08h0a.33.33,0,0,1,.23.1.31.31,0,0,1,.08.24.3.3,0,0,1-.1.19l-4,3.39,2.65,4.08a.34.34,0,0,1-.07.42h-.07A.19.19,0,0,1,63.55,44.24ZM59.78,32.49a.14.14,0,0,0-.13.1l-2,11.32c0,.07,0,.15.09.16h0a.15.15,0,0,0,.14-.12l.36-2.12h.07l2.37-2L63.43,44a.13.13,0,0,0,.12.07l0,0h0a.15.15,0,0,0,0-.18l-2.72-4.21L65,36.16s0,0,0-.07A.17.17,0,0,0,65,36a.15.15,0,0,0-.1,0h0a.09.09,0,0,0-.07,0l-6.52,5.55,1.57-8.88a.13.13,0,0,0-.11-.15Z"/><path class="cls-1" d="M66,40.06A5,5,0,0,1,70.66,36a3.17,3.17,0,0,1,2.4,1A3.74,3.74,0,0,1,74,39.84s0,0,0,.07a.25.25,0,0,1-.21.15H66.45a.12.12,0,0,0,0,.08,3,3,0,0,0,2.87,3.63,4.32,4.32,0,0,0,3.27-1.68.23.23,0,0,1,.3,0,.23.23,0,0,1,0,.31A4.84,4.84,0,0,1,69.3,44.2a3.27,3.27,0,0,1-2.42-1,3.38,3.38,0,0,1-.94-2.41A3.51,3.51,0,0,1,66,40.06Zm.54-.42h7a1.1,1.1,0,0,0,0-.25,2.83,2.83,0,0,0-2.92-3A4.52,4.52,0,0,0,66.55,39.64Z"/><path class="cls-1" d="M69.3,44.29a3.35,3.35,0,0,1-2.48-1A3.75,3.75,0,0,1,65.93,40a5.08,5.08,0,0,1,4.73-4.13h.06a3.24,3.24,0,0,1,2.4,1,3.47,3.47,0,0,1,1,2.48,3.62,3.62,0,0,1,0,.46.43.43,0,0,0,0,0v0a.32.32,0,0,1-.29.2H66.52a2.67,2.67,0,0,0-.07.66,2.74,2.74,0,0,0,2.85,2.88A4.23,4.23,0,0,0,72.51,42a.31.31,0,0,1,.41-.05.33.33,0,0,1,.06.43A5,5,0,0,1,69.3,44.29Zm1.42-8.21a4.89,4.89,0,0,0-4.62,4h0a3,3,0,0,0-.07.72A3.29,3.29,0,0,0,67,43.15a3.18,3.18,0,0,0,2.35,1,4.8,4.8,0,0,0,3.54-1.82.13.13,0,0,0,0-.18.13.13,0,0,0-.17,0,4.39,4.39,0,0,1-3.34,1.71,2.9,2.9,0,0,1-3-3.05,2.68,2.68,0,0,1,.07-.68s0,0,0-.1l0-.05h7.36a.14.14,0,0,0,.12-.09s0,0,0,0a3.78,3.78,0,0,0,0-.46A3.29,3.29,0,0,0,73,37,3.11,3.11,0,0,0,70.72,36.08Zm2.91,3.64h-7.2l0-.11a4.61,4.61,0,0,1,4.16-3.28h0a2.93,2.93,0,0,1,3,3.06,1.18,1.18,0,0,1,0,.26Zm-7-.17h6.82v-.16a2.74,2.74,0,0,0-2.83-2.89h0A4.42,4.42,0,0,0,66.67,39.55Z"/><path class="cls-1" d="M79.54,36.18a.3.3,0,0,1-.26.22H77.93l-1.16,6.49a.7.7,0,0,0,.72.86c.12,0,.18.1.17.22a.29.29,0,0,1-.25.22,1.06,1.06,0,0,1-1.06-1.3l1.16-6.49H76.1a.17.17,0,0,1-.17-.22.23.23,0,0,1,.23-.2h1.41l.59-3.34a.26.26,0,0,1,.25-.2.16.16,0,0,1,.17.2L78,36h1.34A.18.18,0,0,1,79.54,36.18Z"/><path class="cls-1" d="M77.41,44.27a1.18,1.18,0,0,1-.9-.39,1.23,1.23,0,0,1-.25-1l1.14-6.39H76.1a.27.27,0,0,1-.22-.11.24.24,0,0,1,0-.22.31.31,0,0,1,.31-.27H77.5l.58-3.26a.33.33,0,0,1,.33-.28.26.26,0,0,1,.26.3l-.56,3.24h1.24a.29.29,0,0,1,.21.09.27.27,0,0,1,.06.21h0a.38.38,0,0,1-.34.29H78l-1.15,6.42a.66.66,0,0,0,.15.55.63.63,0,0,0,.49.2.23.23,0,0,1,.19.09.26.26,0,0,1,.06.23A.34.34,0,0,1,77.41,44.27Zm-1.25-8.2a.15.15,0,0,0-.15.12.13.13,0,0,0,0,.09.11.11,0,0,0,.08,0h1.51l-1.18,6.6a1,1,0,0,0,.22.86,1,1,0,0,0,.76.33.18.18,0,0,0,.16-.14.11.11,0,0,0,0-.1s0,0-.06,0a.8.8,0,0,1-.62-.27.86.86,0,0,1-.19-.69l1.17-6.57h1.43a.2.2,0,0,0,.17-.15.07.07,0,0,0,0-.06s0,0-.08,0H77.91l.59-3.44a.19.19,0,0,0,0-.08.1.1,0,0,0-.07,0,.15.15,0,0,0-.16.12l-.6,3.42Z"/><path class="cls-1" d="M81.37,44l1.35-7.82A.24.24,0,0,1,83,36a.18.18,0,0,1,.16.23L81.78,44a.21.21,0,0,1-.2.17h0A.22.22,0,0,1,81.37,44Zm1.91-9.68a.22.22,0,0,1-.17-.25l.08-.41a.22.22,0,0,1,.26-.16.21.21,0,0,1,.16.25l-.08.4a.2.2,0,0,1-.2.17Z"/><path class="cls-1" d="M81.58,44.29h-.07a.32.32,0,0,1-.23-.34h0l1.36-7.82a.28.28,0,0,1,.14-.19.29.29,0,0,1,.22,0,.26.26,0,0,1,.23.34l-1.36,7.81A.32.32,0,0,1,81.58,44.29Zm0-.17h0a.15.15,0,0,0,.12-.1l1.36-7.82s0-.06,0-.08a.11.11,0,0,0-.09,0,.08.08,0,0,0-.09,0,.16.16,0,0,0-.06.08L81.45,44A.16.16,0,0,0,81.55,44.12Zm1.78-9.77h-.07A.3.3,0,0,1,83,34l.09-.41a.3.3,0,0,1,.35-.24.32.32,0,0,1,.24.35l-.09.41A.27.27,0,0,1,83.33,34.35Zm0-.17h0a.1.1,0,0,0,.11-.09l.09-.41a.15.15,0,0,0-.1-.15.14.14,0,0,0-.15.1l-.09.4A.14.14,0,0,0,83.29,34.18Z"/><path class="cls-1" d="M93.11,39.25a2.06,2.06,0,0,0,0-.48,2.29,2.29,0,0,0-2.38-2.35,3.65,3.65,0,0,0-3.47,2.9l-.83,4.75s0,0,0,.06a0,0,0,0,1,0,0s0,0,0,0,0,0,0,0,0,0,0,0,0,0,0,0h-.07a.23.23,0,0,1-.17-.26l.84-4.73h0l.54-3.08a.21.21,0,0,1,.25-.16.22.22,0,0,1,.17.25l-.25,1.37A4.11,4.11,0,0,1,90.78,36a2.9,2.9,0,0,1,2,.79,2.75,2.75,0,0,1,.78,2,3.62,3.62,0,0,1,0,.55l-.81,4.75a.25.25,0,0,1-.24.17h0a.23.23,0,0,1-.17-.26Z"/><path class="cls-1" d="M92.47,44.32h0a.3.3,0,0,1-.21-.13.33.33,0,0,1,0-.22L93,39.23a2.49,2.49,0,0,0,0-.46,2.21,2.21,0,0,0-2.3-2.27,3.57,3.57,0,0,0-3.39,2.83l-.82,4.75a.21.21,0,0,1,0,.1l0,0a.1.1,0,0,1,0,0,.05.05,0,0,1,0,0l0,0a.08.08,0,0,1-.07,0h-.07a.26.26,0,0,1-.2-.13A.28.28,0,0,1,86,44l1.38-7.82a.29.29,0,0,1,.34-.24.3.3,0,0,1,.24.35l-.19,1.06a4.13,4.13,0,0,1,3-1.41,3,3,0,0,1,2.07.81,3.05,3.05,0,0,1,.75,2.61l-.81,4.75A.31.31,0,0,1,92.47,44.32Zm-4.81-8.24c-.06,0-.13,0-.13.1L86.15,44a.12.12,0,0,0,0,.1.13.13,0,0,0,.07,0h.07v0h0v0h0v0l.82-4.75a3.75,3.75,0,0,1,3.56-3,2.39,2.39,0,0,1,2.47,2.44,2.92,2.92,0,0,1,0,.5L92.36,44a.12.12,0,0,0,0,.1.1.1,0,0,0,.07,0h0c.07,0,.15,0,.15-.1l.81-4.75a3.49,3.49,0,0,0,0-.53,2.68,2.68,0,0,0-.75-1.92,2.85,2.85,0,0,0-2-.77,4,4,0,0,0-3.1,1.6l-.22.28.31-1.73a.14.14,0,0,0-.09-.15Z"/><path class="cls-1" d="M98.43,47.63a3.26,3.26,0,0,1-1.63-.41.19.19,0,0,1-.08-.28.21.21,0,0,1,.28-.09,3,3,0,0,0,1.43.36,4.35,4.35,0,0,0,4.1-3.49l.3-1.72A4.67,4.67,0,0,1,99,44.2a3.19,3.19,0,0,1-2.34-1,3.37,3.37,0,0,1-.9-2.4,4.16,4.16,0,0,1,.06-.78A4.94,4.94,0,0,1,100.41,36a3.09,3.09,0,0,1,2.33,1,3.2,3.2,0,0,1,.76,1.27l.37-2.08a.2.2,0,0,1,.25-.17.21.21,0,0,1,.17.24l-.69,3.89v0L103,43.78A4.78,4.78,0,0,1,98.43,47.63Zm4.75-7.56a5.45,5.45,0,0,0,0-.68,2.79,2.79,0,0,0-2.82-3h0a4.48,4.48,0,0,0-4.11,3.73,3.16,3.16,0,0,0-.06.69A2.77,2.77,0,0,0,99,43.78,4.49,4.49,0,0,0,103.18,40.07Z"/><path class="cls-1" d="M98.43,47.71a3.33,3.33,0,0,1-1.67-.41.32.32,0,0,1-.15-.19.24.24,0,0,1,0-.22.24.24,0,0,1,.16-.13.26.26,0,0,1,.23,0,3,3,0,0,0,1.39.34,4.25,4.25,0,0,0,4-3.42l.24-1.34A4.66,4.66,0,0,1,99,44.29H99a3.27,3.27,0,0,1-2.34-1,3.46,3.46,0,0,1-.93-2.47,3.9,3.9,0,0,1,.07-.78,5,5,0,0,1,4.63-4.15,3.22,3.22,0,0,1,2.4,1,3.27,3.27,0,0,1,.66,1l.31-1.77a.3.3,0,0,1,.36-.24.27.27,0,0,1,.18.11.28.28,0,0,1,.05.22L103,43.8A4.83,4.83,0,0,1,98.43,47.71Zm-1.52-.79h0a.09.09,0,0,0-.06.06.08.08,0,0,0,0,.09.16.16,0,0,0,.06.08,3.26,3.26,0,0,0,1.59.39,4.66,4.66,0,0,0,4.43-3.77l.65-3.63.69-3.91a.1.1,0,0,0,0-.09.08.08,0,0,0-.07,0,.11.11,0,0,0-.1,0,.16.16,0,0,0-.06.08l-.43,2.43-.1-.33a3.14,3.14,0,0,0-.74-1.24,3,3,0,0,0-2.27-1,4.83,4.83,0,0,0-4.46,4,3.64,3.64,0,0,0-.07.76,3.26,3.26,0,0,0,.89,2.34,3.1,3.1,0,0,0,2.21.93h0A4.6,4.6,0,0,0,102.76,42l.22-.35-.37,2.12a4.43,4.43,0,0,1-4.18,3.56A3.07,3.07,0,0,1,97,46.93Zm2.15-3.05h0a2.86,2.86,0,0,1-2.9-3,3.11,3.11,0,0,1,.07-.71,4.55,4.55,0,0,1,4.19-3.79,2.88,2.88,0,0,1,2.93,3,5.76,5.76,0,0,1,0,.7h0A4.58,4.58,0,0,1,99.06,43.87Zm1.35-7.35a4.38,4.38,0,0,0-4,3.65,2.9,2.9,0,0,0-.07.68A2.68,2.68,0,0,0,99,43.7h0a4.41,4.41,0,0,0,4-3.64,5.12,5.12,0,0,0,0-.67A2.71,2.71,0,0,0,100.41,36.52Z"/></g></g></svg>